<?xml version="1.0"?>

<!DOCTYPE svg PUBLIC '-//W3C//DTD SVG 1.0//EN' 'http://www.w3.org/TR/2001/REC-SVG-20010904/DTD/svg10.dtd'>
<svg fill-opacity="1" xmlns:xlink="http://www.w3.org/1999/xlink" color-rendering="auto" color-interpolation="auto" stroke="black" text-rendering="auto" stroke-linecap="square" stroke-miterlimit="10" stroke-opacity="1" shape-rendering="auto" fill="black" stroke-dasharray="none" font-weight="normal" stroke-width="1" xmlns="http://www.w3.org/2000/svg" font-family="&apos;Dialog&apos;" font-style="normal" stroke-linejoin="miter" font-size="12" stroke-dashoffset="0" image-rendering="auto">
  <!--Unicode Character 'DOUBLE-STRUCK CAPITAL H' (U+210D)-->
  <defs id="genericDefs" />
  <g>
    <g>
      <path d="M202.5 385.875 L121.2188 385.875 L121.2188 380.6719 Q134.7188 380.6719 140.2734 377.9297 Q145.8281 375.1875 147.0938 369.3516 Q148.3594 363.5156 148.3594 349.3125 L148.3594 294.0469 L59.625 294.0469 L59.625 349.3125 Q59.625 363.5156 60.8906 369.3516 Q62.1562 375.1875 67.7109 377.9297 Q73.2656 380.6719 86.625 380.6719 L86.625 385.875 L5.4844 385.875 L5.4844 380.6719 Q18.8438 380.6719 24.3984 377.9297 Q29.9531 375.1875 31.2188 369.3516 Q32.4844 363.5156 32.4844 349.3125 L32.4844 231.75 Q32.4844 217.5469 31.2188 211.7109 Q29.9531 205.875 24.3984 203.1328 Q18.8438 200.3906 5.4844 200.3906 L5.4844 195.1875 L86.625 195.1875 L86.625 200.3906 Q73.2656 200.3906 67.7109 203.1328 Q62.1562 205.875 60.8906 211.7109 Q59.625 217.5469 59.625 231.75 L59.625 283.6406 L148.3594 283.6406 L148.3594 231.75 Q148.3594 217.5469 147.0938 211.7109 Q145.8281 205.875 140.2734 203.1328 Q134.7188 200.3906 121.2188 200.3906 L121.2188 195.1875 L202.5 195.1875 L202.5 200.3906 Q189 200.3906 183.4453 203.1328 Q177.8906 205.875 176.625 211.7109 Q175.3594 217.5469 175.3594 231.75 L175.3594 349.3125 Q175.3594 363.5156 176.625 369.3516 Q177.8906 375.1875 183.4453 377.9297 Q189 380.6719 202.5 380.6719 L202.5 385.875 ZM178.5938 380.6719 Q172.5469 376.5938 171.0703 369.7031 Q169.5938 362.8125 169.5938 349.3125 L169.5938 232.3125 Q169.5938 218.8125 171.0703 211.9219 Q172.5469 205.0312 178.5938 200.9531 L145.125 200.9531 Q151.1719 205.0312 152.6484 211.9219 Q154.125 218.8125 154.125 232.3125 L154.125 349.3125 Q154.125 365.9062 152.1562 371.3906 Q150.1875 376.875 145.125 380.6719 L178.5938 380.6719 ZM62.7188 380.6719 Q56.6719 376.5938 55.2656 369.7031 Q53.8594 362.8125 53.8594 349.3125 L53.8594 232.3125 Q53.8594 218.8125 55.2656 211.9219 Q56.6719 205.0312 62.7188 200.9531 L29.3906 200.9531 Q35.4375 205.0312 36.8438 211.9219 Q38.25 218.8125 38.25 232.3125 L38.25 349.3125 Q38.25 362.8125 36.8438 369.7031 Q35.4375 376.5938 29.3906 380.6719 L62.7188 380.6719 Z" stroke="none" />
    </g>
  </g>
</svg>
